<svg width="128" height="37" viewBox="0 0 128 37" fill="none" xmlns="http://www.w3.org/2000/svg">
<g clip-path="url(#clip0_14_2553)">
<g clip-path="url(#clip1_14_2553)">
<path fill-rule="evenodd" clip-rule="evenodd" d="M13.8621 5.96124V16.1837H4.4746V5.96124H0.0175781V30.3622H4.4746V20.4725H13.8621V30.3622H18.3191V5.96124H13.8621ZM32.5834 22.4745C32.5834 24.511 30.9326 26.1618 28.8961 26.1618C26.8595 26.1618 25.2088 24.511 25.2088 22.4745V12.0236H20.9808V22.4745C20.9814 26.8419 24.5222 30.3814 28.889 30.3808C33.2558 30.3801 36.7947 26.8406 36.7953 22.4745V12.0236H32.5834V22.4745ZM63.906 13.0998C63.906 10.9576 65.3232 10.2781 66.876 10.2781C68.1275 10.2781 69.7808 11.2308 70.8609 12.3857L73.63 9.12326C72.248 7.25433 69.4437 5.96124 67.1486 5.96124C62.563 5.96124 59.2461 8.64723 59.2461 13.0998C59.2461 21.3612 69.3432 18.7405 69.3432 23.3632C69.3432 24.7894 67.9593 26.0492 66.3738 26.0492C63.8733 26.0492 63.0633 24.8271 61.9142 23.5334L58.8418 26.7287C60.8073 29.1414 63.231 30.3661 66.1358 30.3661C70.4923 30.3661 73.9973 27.6481 73.9973 23.3984C73.9973 14.2271 63.8996 17.0769 63.8996 13.0998M126.373 26.4644C123.875 26.4644 123.165 25.3831 123.165 23.7279V16.4019H127.048V12.6896H123.165V7.79178L118.878 9.71509V24.6396C118.878 28.4562 121.512 30.3801 125.124 30.3801C125.691 30.3904 126.256 30.3456 126.814 30.2451L127.86 26.3953C127.389 26.4273 126.847 26.4606 126.373 26.4606M48.6487 26.124C45.9954 26.124 43.8443 23.9729 43.8443 21.319C43.8443 18.6662 45.9954 16.5151 48.6487 16.5151C51.3021 16.5151 53.4525 18.6662 53.4525 21.3196C53.4525 23.9729 51.3021 26.1234 48.6487 26.1234M48.6743 12.1458C46.5808 12.1458 45.1201 12.753 43.7067 14.1395V6.10776H39.473V20.9939C39.473 26.5668 43.502 30.384 48.0287 30.384C53.0514 30.384 57.4687 26.499 57.4687 21.2665C57.4687 16.1005 53.4026 12.1477 48.675 12.1477M90.6411 20.992C90.6411 23.6454 88.49 25.7958 85.8373 25.7958C83.1839 25.7958 81.0328 23.6454 81.0328 20.992C81.0328 18.3386 83.1839 16.1876 85.8373 16.1876C88.49 16.1876 90.6411 18.3386 90.6411 20.992ZM94.6502 21.0445C94.6502 15.8037 90.2418 11.927 85.2102 11.927C80.6835 11.927 76.6545 15.7442 76.6545 21.317V36.2121H80.8888V28.1696C82.2997 29.5541 83.7623 30.1632 85.8545 30.1632C90.5822 30.1632 94.6483 26.213 94.6483 21.0445" fill="#33475B"/>
<path fill-rule="evenodd" clip-rule="evenodd" d="M106.871 25.7088C104.256 25.7088 102.136 23.589 102.136 20.9741C102.136 18.3598 104.256 16.24 106.871 16.24C109.485 16.24 111.605 18.3598 111.605 20.9747C111.605 23.589 109.485 25.7094 106.87 25.7094M108.287 11.8598V7.64974C109.423 7.11868 110.151 5.98107 110.157 4.72766V4.62976C110.152 2.84273 108.705 1.39609 106.919 1.39097H106.82C105.034 1.39609 103.587 2.84337 103.582 4.62976V4.72766C103.588 5.98171 104.315 7.11932 105.451 7.6491V11.8598C103.852 12.1042 102.345 12.7671 101.084 13.7812L89.5233 4.78652C89.6058 4.49028 89.6493 4.18381 89.6545 3.87605C89.6564 1.85868 88.0229 0.220732 86.0049 0.218173C83.9875 0.215614 82.3502 1.84973 82.3477 3.86709C82.3451 5.8851 83.9792 7.52241 85.9966 7.52497C86.6313 7.52305 87.2538 7.3535 87.8022 7.03358L99.1687 15.8824C97.0732 19.0431 97.1295 23.1655 99.3107 26.268L95.8518 29.7269C95.5741 29.6386 95.2849 29.5912 94.9932 29.5868C93.3354 29.5868 91.9905 30.9317 91.9905 32.5895C91.9905 34.2479 93.3354 35.5922 94.9932 35.5922C96.6516 35.5922 97.9958 34.2485 97.9958 32.5895C97.992 32.2983 97.9447 32.0091 97.8564 31.7315L101.278 28.3097C105.328 31.4026 111.117 30.6271 114.21 26.5777C117.303 22.5289 116.528 16.7384 112.479 13.6455C111.253 12.7095 109.811 12.0952 108.287 11.8598Z" fill="#FF7A59"/>
</g>
</g>
<defs>
<clipPath id="clip0_14_2553">
<rect width="128" height="36.47" fill="white"/>
</clipPath>
<clipPath id="clip1_14_2553">
<rect width="127.965" height="36.47" fill="white" transform="translate(0.0175781)"/>
</clipPath>
</defs>
</svg>
