<svg width="36" height="37" viewBox="0 0 36 37" fill="none" xmlns="http://www.w3.org/2000/svg">
<path d="M0 3.47C0 1.81315 1.34315 0.470001 3 0.470001H36V36.47H3C1.34315 36.47 0 35.1269 0 33.47V3.47Z" fill="white"/>
<g clip-path="url(#clip0_14_2572)">
<path d="M18 13.0325C19.3275 13.0325 20.5162 13.49 21.4537 14.3825L24.0225 11.8138C22.4625 10.3625 20.4262 9.47 18 9.47C14.4825 9.47 11.4412 11.4875 9.95996 14.4275L12.9525 16.7488C13.6612 14.615 15.6525 13.0325 18 13.0325Z" fill="#EA4335"/>
<path d="M26.6175 18.6763C26.6175 18.0875 26.5613 17.5175 26.475 16.97H18V20.3525H22.8525C22.635 21.4625 22.005 22.4075 21.06 23.045L23.9588 25.295C25.65 23.7275 26.6175 21.41 26.6175 18.6763Z" fill="#4285F4"/>
<path d="M12.9487 20.1912C12.7687 19.6475 12.6638 19.07 12.6638 18.47C12.6638 17.87 12.765 17.2925 12.9487 16.7487L9.95625 14.4275C9.345 15.6425 9 17.015 9 18.47C9 19.925 9.345 21.2975 9.96 22.5125L12.9487 20.1912Z" fill="#FBBC05"/>
<path d="M17.9998 27.47C20.4298 27.47 22.4736 26.6712 23.9586 25.2912L21.0598 23.0412C20.2536 23.585 19.2148 23.9038 17.9998 23.9038C15.6523 23.9038 13.6611 22.3213 12.9486 20.1875L9.95605 22.5088C11.4411 25.4525 14.4823 27.47 17.9998 27.47Z" fill="#34A853"/>
</g>
<defs>
<clipPath id="clip0_14_2572">
<rect width="18" height="18" fill="white" transform="translate(9 9.47)"/>
</clipPath>
</defs>
</svg>
